<svg version="1.1" xmlns="http://www.w3.org/2000/svg" xmlns:xlink="http://www.w3.org/1999/xlink" width="210.53526" height="201.66666" viewBox="0,0,210.53526,201.66666"><g transform="translate(-129.30236,-77.91667)"><g data-paper-data="{&quot;isPaintingLayer&quot;:true}" fill="none" fill-rule="nonzero" stroke="#8c8c8c" stroke-width="50" stroke-linecap="butt" stroke-linejoin="miter" stroke-miterlimit="10" stroke-dasharray="" stroke-dashoffset="0" style="mix-blend-mode: normal"><path d="M286.88623,180c0,24.85281 -20.99168,45 -46.88623,45c-25.89455,0 -46.88623,-20.14719 -46.88623,-45c0,-24.85281 20.99168,-45 46.88623,-45c25.89455,0 46.88623,20.14719 46.88623,45z"/><path d="M234.44445,126.58333v-23.66666h5.33333v23.66666z"/><path d="M281.13537,136.59496l20.09335,-15.64129l3.5248,4.52808l-20.09335,15.64129z"/><path d="M288.55153,184.36309l23.66009,-0.55802l0.12575,5.33185l-23.66009,0.55802z"/><path d="M281.99412,237.99452l-13.48261,-19.45072l4.38326,-3.03833l13.48261,19.45072z"/><path d="M227.44445,254.58333v-23.66666h5.33333v23.66666z"/><path d="M171.17818,231.62286l13.48261,-19.45072l4.38326,3.03834l-13.48261,19.45071z" data-paper-data="{&quot;index&quot;:null}"/><path d="M154.88486,167.02976l23.66008,-0.55802l0.12575,5.33185l-23.66008,0.55802z"/><path d="M200.89539,138.12303l-20.09335,-15.64129l3.52479,-4.52807l20.09335,15.64129z" data-paper-data="{&quot;index&quot;:null}"/></g></g></svg>