<svg version="1.1" xmlns="http://www.w3.org/2000/svg" xmlns:xlink="http://www.w3.org/1999/xlink" width="401.5" height="89.5" viewBox="0,0,401.5,89.5"><g transform="translate(-39.25,-135.25)"><g data-paper-data="{&quot;isPaintingLayer&quot;:true}" fill-rule="nonzero" stroke-linecap="butt" stroke-linejoin="miter" stroke-miterlimit="10" stroke-dasharray="" stroke-dashoffset="0" style="mix-blend-mode: normal"><path d="M47,217v-74h386v74z" fill="#ffffff" stroke="#000000" stroke-width="15.5"></path><path d="M343.33373,211.30676c-0.78056,-0.44604 -1.68238,-0.77163 -2.57564,-1.10572c0.1043,1.58127 -0.22977,3.02789 -1.33313,4.13126c-3.80104,3.80104 -11.27714,6.28207 -13.42389,-1.19556c-0.05235,-0.18236 -0.29542,0.25363 -0.47584,0.31231c-1.23488,0.40162 -2.53428,0.65118 -3.69574,1.23191c-1.44517,0.72258 -6.69959,2.04551 -8.36968,2.16941c-4.7088,0.34934 -9.85915,-2.13174 -14.39521,-3.33431c-1.0321,-0.27362 -1.69021,-1.7854 -2.70127,-2.19478c-0.66269,-0.26832 -2.95487,1.73426 -3.87974,1.96548c-4.35877,1.08969 -11.88148,3.97014 -15.78453,2.99438c-1.12314,-0.28078 -2.36747,-0.34205 -3.33074,-0.98423c-0.11497,-0.07665 -2.07573,-4.06506 -2.94937,-3.36744c-3.11931,2.49087 -7.73645,1.15705 -9.8856,-2.42485c-1.16804,0.75072 -2.55797,1.18617 -4.04961,1.18617c-1.12125,0 -2.18503,-0.24605 -3.1403,-0.6871c-0.51314,1.0084 -1.22781,2.04411 -2.20599,3.13737c-3.16614,3.53862 -8.57307,-1.60044 -10.84685,-1.25036c-2.14761,0.33065 -3.69979,2.09646 -5.69739,2.59586c-3.35799,0.8395 -8.39895,0.07391 -10.8109,-2.65714c-0.00833,-0.00943 -1.12391,0.48432 -1.20028,0.50129c-0.73935,0.1643 -1.89829,0.35896 -2.6047,0.51594c-2.05811,0.45736 -4.35603,-0.409 -6.24324,-0.98897c-0.6232,-0.19152 -1.74699,-0.36854 -2.86976,-0.56665c-0.55408,-0.0357 -1.09179,-0.13158 -1.60664,-0.28115l-2.41923,0.60481h-3.38777l-0.29275,-0.07319l-0.22728,0.11364l-1.59099,-0.56821l-1.63897,-0.40974l-0.12607,-0.22063l-0.28418,-0.10149l-0.37731,-0.25154l-0.04514,-0.02873h-0.42231l-0.44254,0.22127l-0.0418,0.07314l-0.20898,0.05225l-0.18692,0.09346l-1.68226,0.37384l-1.51877,0.37969l-0.0237,0.42664l-0.73168,0.62716l-0.51738,0.81302l-0.5369,0.10738l-0.66777,0.73455l-0.0101,0.18172l-0.70254,0.60218l-0.19423,0.21366l-0.03265,0.02176l-2.39881,2.79861l-0.2957,0.01643l-0.14693,0.25713l-3.75,0.9375h-1.53989l-3.75,-0.9375l-0.14693,-0.25713l-0.2957,-0.01643l-1.32425,-1.54495l-0.09441,-0.05664l-0.61596,-0.61596l-0.31231,-0.52052l-0.16866,-0.19676l-0.25298,-0.50597l-0.02731,-0.04551l-0.49794,-0.28454l-0.23373,-0.93491l-0.19197,-0.31995l-0.24032,0.24032l-1.53989,0.92394l-0.04078,0.01241l-0.06794,0.11889l-1.80715,0.45179l-1.78207,0.54237l-0.11943,-0.06699l-0.04135,0.01034h-0.43458l-0.07009,0.04673l-0.21028,-0.04673h-0.20898l-1.67184,-0.41796l-0.89099,-0.198h-1.13292l-0.60814,-0.15203l-0.62486,0.04999l-1.84787,-0.30798l-0.47365,-0.20593h-0.14123l-0.21148,-0.05287l-0.31236,-0.02403l-0.64676,-0.21559l-1.20112,-0.09239l-1.61718,-0.53906h-11.88586l-0.20242,0.01557l-1.16963,0.29241h-1.33499l-0.67999,0.408l-0.24516,-0.06686l-0.27271,0.12918l-0.55501,0.111l-0.51183,0.25591l-0.0418,0.07314l-0.20898,0.05225l-0.18692,0.09346l-1.68226,0.37384l-1.67184,0.41796h-0.20898l-0.21028,0.04673l-0.07009,-0.04673h-0.43458l-3.75,-0.9375l-0.39073,-0.68377c-0.28046,0.09811 -0.56379,0.19881 -0.85015,0.30283c-1.0918,0.39659 -4.26165,2.71027 -5.33954,2.65038c-2.08419,-0.11579 -4.16751,-0.45387 -6.18137,-1.0031c-1.08523,-0.29597 -1.6928,-3.12499 -2.65005,-3.20378c-1.63725,-0.13477 -4.01104,2.10556 -6.09243,1.64303c-1.39104,-0.30912 -3.67661,-0.54877 -4.80858,-1.51904c-0.784,-0.67201 -1.62501,-2.36267 -2.39035,-2.78874c-0.27261,-0.15177 -0.28237,2.78191 -0.39202,3.27533c-0.55342,2.49036 -1.28035,5.20129 -2.4774,7.44575c-1.007,1.88811 -1.81584,1.38134 -4.02775,2.30157c-3.93873,1.63865 -5.52823,1.11874 -9.09725,-2.30157c-0.59203,-0.56736 -0.92614,-2.9699 -0.9375,-3.75c-0.00276,-0.18953 -0.00538,-0.37906 -0.00786,-0.56859c-2.91141,1.38442 -7.90298,0.49962 -10.63402,-0.47077c-1.25628,-0.44637 -2.32317,-2.11311 -3.60246,-1.73773c-1.86027,0.54585 -3.11644,3.02951 -5.0498,2.8856c-1.3788,-0.10264 -2.68411,-0.68544 -3.87578,-1.48492c-0.48332,1.14274 -0.9433,2.08896 -1.26491,2.3546c-1.94253,1.60444 -4.04304,3.75 -6.5625,3.75c-5.23832,0 -7.20075,-3.55047 -7.5,-7.5c-0.44636,-5.89117 0.90838,-11.17034 0.92394,-16.77099c0.01644,-5.91986 0.06435,-12.47251 0.66684,-18.23413c0.65549,-6.26849 0.2218,-12.95138 0.2571,-19.38051c0.01545,-2.81397 -0.20709,-5.63565 0,-8.44203c0.01598,-0.2165 0.02381,-0.44748 0.03088,-0.68519c0.34606,-3.821 3.55797,-6.81481 7.46912,-6.81481c0.14623,0 0.29149,0.00419 0.43566,0.01244c0.0993,-0.00658 0.19803,-0.01931 0.29626,-0.03741c0.08973,-0.1051 0.18381,-0.20582 0.28277,-0.30162h-0.00001c0.2309,-0.22353 0.48835,-0.42033 0.77892,-0.58378c4.24253,-2.38647 9.61266,-1.03681 13.90229,0.0967c1.3226,0.34949 0.51512,-3.05531 1.70287,-3.73402c5.52302,-3.15601 7.13118,-3.87066 12.26213,0.59823c0.80794,0.70369 0.7416,3.7941 0.95307,4.73622c0.23896,1.06456 0.44689,2.12501 0.63074,3.1833c0.64177,-0.17876 1.31822,-0.27433 2.01699,-0.27433c0.95857,0 1.87514,0.17983 2.71781,0.5076c0.99836,0.04122 1.70172,0.09096 1.70932,0.08605c0.36838,-0.23783 0.24203,-2.88991 0.29201,-3.08983c0.58282,-2.3313 2.01096,-3.31137 3.88538,-4.75251c0.96724,-0.74366 2.51394,-2.6692 4.02262,-2.29864c1.83834,0.45152 3.63623,1.15225 5.2798,2.09143c0.8544,0.48823 1.71756,4.30423 2.2418,4.43376c1.2815,0.31664 1.6846,-2.09881 2.17074,-2.37661c0.59784,-0.34162 1.40164,0.13986 2.06521,-0.04394c0.66357,-0.1838 1.1051,-1.01022 1.79351,-1.02487c0.63898,-0.0136 1.04406,0.79888 1.66474,0.95129c2.42424,0.59527 3.66866,1.54009 4.61401,2.62967c1.72817,-1.58047 4.45324,-2.96192 6.15168,-2.39577c3.99792,1.33264 5.97809,3.26455 6.50814,6.07376c0.36707,-0.01667 0.76773,0.02902 1.18588,0.12445c1.36465,-1.86239 3.56797,-3.0717 6.05374,-3.0717l0.00004,0.00002c1.50387,0 2.90436,0.44263 4.07831,1.20471l0.11432,0.00635l0.14636,0.17076c0.39852,0.28314 0.76818,0.60424 1.10371,0.95803l0.75909,-0.45545l0.91538,-0.78461l0.17826,-0.08913l0.0418,-0.07314l0.20898,-0.05225l0.18692,-0.09346l0.46003,-0.10223l0.28938,-0.17363l0.22087,0.06024l0.71198,-0.15822l1.67184,-0.41796h0.20898l0.21028,-0.04673l0.033,0.022l0.63878,-0.38327l0.23413,0.06385l0.26405,-0.17603l0.00824,-0.00737l0.00253,0.00019l0.09135,-0.0609l0.44632,-0.1594l0.35983,-0.30843l0.17826,-0.08913l0.0418,-0.07314l0.20898,-0.05225l0.18692,-0.09346l1.68226,-0.37384l0.38209,-0.09552l0.15376,-0.05491l0.02197,0.01098l1.11402,-0.27851h0.20898l0.21028,-0.04673l0.02063,0.01375l1.1,-0.275h0.20898l0.21028,-0.04673l0.07009,0.04673h0.74256l1.16963,0.29241l1.20208,0.09247l0.45969,0.15323l0.08127,-0.02217l0.18471,0.11083l0.19826,0.06609l0.33921,0.21586l0.11515,0.02879l0.03995,0.06991l0.95957,0.61064l1.47771,0.88663l0.14777,0.14777l0.18173,0.11565l0.01652,0.08261l3.04174,3.04174l0.14398,0.23997l0.31011,-0.19734l0.03995,-0.06991l0.11515,-0.02879l0.33921,-0.21586l0.92394,-0.30798l1.20208,-0.09247l1.16963,-0.29241h1.35852l0.07009,-0.04673l0.21028,0.04673h0.20898l1.67184,0.41796l1.68226,0.37384l0.18692,0.09346l0.20898,0.05225l0.0418,0.07314l0.06308,0.03154l0.05464,-0.03477l0.03995,-0.06991l0.11515,-0.02879l0.33921,-0.21586l0.92394,-0.30798l0.76363,-0.05874l0.16411,-0.05861l0.07971,0.03986l0.19462,-0.01497l1.16963,-0.29241h1.53989l1.23191,-0.30798h0.20898l0.21028,-0.04673l0.07009,0.04673h2.89841l1.16963,0.29241l1.20208,0.09247l0.48096,0.16032l1.99441,0.39888l2.5444,-0.6361h0.51696l0.89099,-0.198l1.67184,-0.41796h0.20898l0.68216,-0.15159l0.12491,-0.07949l0.92394,-0.30798l0.75722,-0.05825l0.0746,-0.01865h0.16784l0.06292,-0.00484l0.1885,-0.04189l0.02063,0.01375l1.1,-0.275h0.61596l0.47429,0.11857l0.39207,-0.03016l0.19881,0.17788l2.68483,0.67121l0.14693,0.25713l0.2957,0.01643l1.39396,1.62629l1.48075,1.26921c1.75831,-2.80492 5.28949,-4.30919 8.53536,-5.0305l0.00002,-0.00001c0.8378,-0.18618 2.22457,0.03594 2.91267,0.20796c0.62186,0.15547 1.60113,1.36565 1.77167,0.74775c0.70894,-2.56858 4.0579,-4.09467 6.71087,-4.34348c1.80115,-0.16892 3.06691,1.94025 4.71208,2.69262c2.39802,1.09667 4.04625,-4.23251 6.68313,-4.23251c2.51946,0 4.78098,1.96848 6.5625,3.75c0.66804,0.66804 1.07618,1.40846 1.3003,2.19638c1.74439,-1.10226 3.77097,-1.78673 5.44926,-1.36716v0.00002c1.16815,0.29204 2.66558,0.72128 3.64022,1.30008c0.71036,0.42185 1.26239,1.79945 2.01067,1.44924c0.91869,-0.42997 2.16358,-3.24751 4.39248,-4.17186c2.33484,-0.96828 6.74398,-0.06534 8.1755,-0.62781c0.50312,-0.19768 1.9118,-2.11026 3.0163,-1.95965c2.39598,0.32672 5.13992,2.35778 7.31529,2.51056c3.20455,0.22506 7.47164,-0.33183 10.35078,0.30798c1.19212,0.26492 3.90996,0.48315 4.98191,1.24548c0.48675,0.34615 0.37437,1.478 0.971,1.50595c4.36065,0.20424 5.99835,-0.99209 8.55969,-0.05071c0.68157,-1.63357 1.69868,-2.96983 3.07586,-3.75679c0.52002,-0.29715 1.21113,0.23728 1.79404,0.09967c6.60208,-1.55854 6.34376,3.10897 10.58136,5.5424c1.19272,0.68492 5.03384,-2.44115 6.18874,-3.37493c4.25915,-3.44373 11.08142,-3.8229 15.70006,-0.88376c3.029,1.92754 2.60653,7.81372 2.7681,10.56047c0.58477,9.94104 1.92033,19.95386 -0.29241,29.81165c-1.07937,4.80861 -2.14916,11.32308 -1.86344,16.07718c0.06631,1.1034 0.32065,6.7268 -1.03638,7.50225zM166.39776,178.90027l-0.02906,0.63926l0.0019,-0.00569l0.13215,-0.52858z" fill="#000000" stroke="none" stroke-width="0.5"></path><text transform="translate(130.65746,197.23255) scale(1.2584,1.2584)" font-size="40" xml:space="preserve" fill="#ff0000" fill-rule="nonzero" stroke="none" stroke-width="1" stroke-linecap="butt" stroke-linejoin="miter" stroke-miterlimit="10" stroke-dasharray="" stroke-dashoffset="0" font-family="Sans Serif" font-weight="normal" text-anchor="start" style="mix-blend-mode: normal"><tspan x="0" dy="0">LOADİNG...</tspan></text></g></g></svg>