<svg version="1.1" xmlns="http://www.w3.org/2000/svg" xmlns:xlink="http://www.w3.org/1999/xlink" width="116.7655" height="46.82806" viewBox="0,0,116.7655,46.82806"><g transform="translate(-181.61725,-156.58597)"><g data-paper-data="{&quot;isPaintingLayer&quot;:true}" fill-rule="nonzero" stroke-linejoin="miter" stroke-miterlimit="10" stroke-dasharray="" stroke-dashoffset="0" style="mix-blend-mode: normal"><path d="M182.61725,202.41403v-44.82806h114.7655v44.82806z" fill="#ff0000" stroke="#000000" stroke-width="2" stroke-linecap="butt"/><path d="M244.04304,179.29069c0,9.16667 -8.06619,16.59773 -18.01634,16.59773c-9.95015,0 -18.01634,-7.43105 -18.01634,-16.59773c0,-9.16667 8.06619,-16.59773 18.01634,-16.59773c9.95015,0 18.01634,7.43106 18.01634,16.59773z" fill="#ffffff" stroke="#000000" stroke-width="2" stroke-linecap="butt"/><path d="M246.74651,179.893c0,9.16667 -5.61494,16.59773 -12.54132,16.59773c-6.92638,0 -12.54131,-7.43106 -12.54131,-16.59773c0,-9.16667 5.61494,-16.59773 12.54131,-16.59773c6.92638,0 12.54132,7.43106 12.54132,16.59773z" fill="#ff0000" stroke="none" stroke-width="0" stroke-linecap="butt"/><path d="M245.21039,176.62925l-7.22086,-1.6803l9.09294,-1.26023l2.27323,-6.09109l1.87207,6.61619l8.29062,3.67566l-9.09293,-0.10502l0.80232,9.76676l-3.87787,-6.7212l-5.34879,6.51116z" data-paper-data="{&quot;index&quot;:null}" fill="#ffffff" stroke="#000000" stroke-width="2" stroke-linecap="round"/><text transform="translate(197.82001,186) scale(0.5,0.5)" font-size="40" xml:space="preserve" fill="#900000" fill-rule="nonzero" stroke="none" stroke-width="1" stroke-linecap="butt" stroke-linejoin="miter" stroke-miterlimit="10" stroke-dasharray="" stroke-dashoffset="0" font-family="Sans Serif" font-weight="normal" text-anchor="start" style="mix-blend-mode: normal"><tspan x="0" dy="0">TURKISH</tspan></text><path d="M227.01972,196.17214l3.2628,-2.12791" fill="none" stroke="none" stroke-width="0" stroke-linecap="round"/><path d="M241.34768,182.55349l4.82327,-2.41164" fill="none" stroke="none" stroke-width="0" stroke-linecap="round"/><path d="M233.11974,163.26041l-6.10002,3.40466l-4.39769,6.66746l-1.13488,5.8163l1.13488,6.5256l0.56745,0.85117l2.97908,5.107l2.83722,2.83722l1.56047,1.13488" fill="none" stroke="#000000" stroke-width="2" stroke-linecap="round"/><text transform="translate(209.97277,150.10011) scale(0.5,0.5)" font-size="40" xml:space="preserve" fill="#900000" fill-rule="nonzero" stroke="none" stroke-width="1" stroke-linecap="butt" stroke-linejoin="miter" stroke-miterlimit="10" stroke-dasharray="" stroke-dashoffset="0" font-family="Sans Serif" font-weight="normal" text-anchor="start" style="mix-blend-mode: normal"><tspan x="0" dy="0"> </tspan></text></g></g></svg>